<?xml version="1.0" encoding="iso-8859-1"?>
<!DOCTYPE svg PUBLIC "-//W3C//DTD SVG 1.1//EN" "http://www.w3.org/Graphics/SVG/1.1/DTD/svg11.dtd">
<svg version="1.1" id="Layer_1" xmlns="http://www.w3.org/2000/svg" xmlns:xlink="http://www.w3.org/1999/xlink" x="0px" y="0px"
	 width="386.471px" height="386.471px" viewBox="0 0 386.471 386.471" style="enable-background:new 0 0 386.471 386.471;"
	 xml:space="preserve">
<g>
	<g>
		<path style="fill:#FFFFFF;" d="M193.231,23.604c-61.71,0-110.039,50.344-110.039,112.234c0,46.625,22.836,68.828,40.88,85.039
			c11.617,10.445,19.436,16.734,19.436,24.484v16.953c0,0.434,0.038,0.863,0.094,1.289h-0.199v28.945
			c0,30.539,19.689,51.055,50.19,51.055c29.438,0,49.527-20.516,49.527-51.055v-28.945h-0.25c0.055-0.426,0.093-0.855,0.093-1.289
			v-16.953c0-11.797,8.734-18.938,21.977-30.531c17.922-15.688,38.34-35.219,38.34-78.992
			C303.28,73.947,254.94,23.604,193.231,23.604z M192.85,323.604c-18.666,0-29.505-11.609-29.505-31.055l-0.144-13.33
			c7.174,2.46,16.953,4.385,30.036,4.385c12.879,0,22.703-2.051,29.938-4.588v13.533C223.174,312.283,212.19,323.604,192.85,323.604
			z M251.823,199.768c-13.543,11.867-28.805,24.133-28.805,45.594v12.641c-4.73,2.648-13.457,5.797-29.953,5.797
			c-17.314,0-25.523-3.078-29.614-5.461v-12.977c0-17.062-13.301-27.906-26.076-39.383c-16.926-15.203-34.239-32.445-34.239-70.141
			c0-50.859,39.39-92.234,90.096-92.234c50.717,0,90.107,41.375,90.107,92.234C283.338,170.525,268.233,185.393,251.823,199.768z"/>
	</g>
</g>
</svg>
