<?xml version="1.0" encoding="iso-8859-1"?>
<!DOCTYPE svg PUBLIC "-//W3C//DTD SVG 1.1//EN" "http://www.w3.org/Graphics/SVG/1.1/DTD/svg11.dtd">
<svg version="1.1" id="Layer_1" xmlns="http://www.w3.org/2000/svg" xmlns:xlink="http://www.w3.org/1999/xlink" x="0px" y="0px"
	 width="386.471px" height="386.471px" viewBox="0 0 386.471 386.471" style="enable-background:new 0 0 386.471 386.471;"
	 xml:space="preserve">
<path style="fill:#5fc0c3;" d="M270.55,177.021c-0.229-0.29-0.49-0.569-0.76-0.84l-9.58-9.57L153.8,60.19
	c-4.7-4.7-12.319-4.7-17.02,0l-9.57,9.57c-4.7,4.7-4.7,12.32,0,17.02l93.85,93.851l1.061,1.06c0.63,0.83,0.99,1.87,0.99,3
	s-0.37,2.181-1.021,3.021l-1.01,1.02l-93.811,93.8c-4.699,4.7-4.699,12.32,0,17.021l9.57,9.57c4.7,4.699,12.32,4.699,17.021,0
	l115.93-115.92C274.21,188.771,274.46,181.751,270.55,177.021z"/>
</svg>
