<?xml version="1.0" encoding="iso-8859-1"?>
<!DOCTYPE svg PUBLIC "-//W3C//DTD SVG 1.1//EN" "http://www.w3.org/Graphics/SVG/1.1/DTD/svg11.dtd">
<svg version="1.1" id="Layer_1" xmlns="http://www.w3.org/2000/svg" xmlns:xlink="http://www.w3.org/1999/xlink" x="0px" y="0px"
	 width="386.471px" height="386.471px" viewBox="0 0 386.471 386.471" style="enable-background:new 0 0 386.471 386.471;"
	 xml:space="preserve">
<g>
	<path style="fill:#5fc0c3;" d="M135.309,182.005l0.099,24.111h56.749c-6.712,29.355-27.425,47.35-55.227,47.35
		c-36.467,0-66.026-29.565-66.026-66.032c0-36.466,29.559-66.024,66.026-66.024c17.339,0,33.107,6.688,44.892,17.622l18.625-16.052
		c-16.34-16.102-38.766-26.05-63.517-26.05c-49.983,0-90.503,40.523-90.503,90.504c0,49.985,40.52,90.505,90.503,90.505
		c48.003,0,82.686-36.609,82.686-86.595l-0.139-9.339H135.309z"/>
	<polygon style="fill:#5fc0c3;" points="340.444,183.004 305.701,183.004 305.701,148.264 283.538,148.264 283.538,183.004 
		248.789,183.004 248.789,205.167 283.538,205.167 283.538,239.913 305.701,239.913 305.701,205.167 340.444,205.167 	"/>
</g>
</svg>
