<?xml version="1.0" encoding="iso-8859-1"?>
<!DOCTYPE svg PUBLIC "-//W3C//DTD SVG 1.1//EN" "http://www.w3.org/Graphics/SVG/1.1/DTD/svg11.dtd">
<svg version="1.1" id="Layer_1" xmlns="http://www.w3.org/2000/svg" xmlns:xlink="http://www.w3.org/1999/xlink" x="0px" y="0px"
	 width="386.471px" height="386.471px" viewBox="0 0 386.471 386.471" style="enable-background:new 0 0 386.471 386.471;"
	 xml:space="preserve">
<path style="fill:#FFFFFF;" d="M50.206,258.459c11.115-3.086,30.257-15.771,30.257-44.446c0-25.668-8.302-36.985-12.758-43.063
	l-0.56-0.758c-0.046-0.074-0.099-0.141-0.145-0.202c-0.354-1.075-1.413-5.445,0.848-14.792c0.884-3.635,0.355-7.818-1.188-11.221
	c-3.352-7.393-9.589-21.159-5.21-31.518c7.265-17.767,10.307-19.103,18.45-22.685c0.781-0.339,1.55-0.754,2.276-1.219
	c2.036-1.308,10.378-4.44,18.935-4.44c4.12,0,7.543,0.763,10.284,2.145c0.71-2.862,1.575-5.741,2.753-8.623
	c1.008-2.54,2.075-4.719,3.121-6.987c-5.133-2.246-10.693-3.199-16.158-3.199c-11.963,0-23.305,4.151-27.828,7.054
	c-13.238,5.819-18.776,11.189-27.131,31.612c-7.246,17.157,1.378,35.771,5.619,45.133c-5.174,21.399,2.013,28.762,2.013,28.762
	c3.757,5.183,10.138,12.686,10.138,34.002c0,24.262-18.546,28.496-18.546,28.496c-15.054,5.299-35.112,16.575-35.112,49.897
	c0,0,0,8.335,8.271,8.335l36.885,0.007c1.983-6.186,4.594-11.764,7.771-16.661l-35.782-0.012
	C29.894,268.238,39.651,262.263,50.206,258.459z M258.196,260.865c0,0-29.647-7.116-29.647-38.311
	c0-27.402,12.183-37.053,16.885-43.715c0,0,9.657-8.527,3.19-36.043c10.783-15.075,14.296-39.629,1.09-69.941
	c-7.366-17.716-13.86-27.41-23.763-33.049c-7.271-4.152-15.527-5.679-23.546-5.679c-14.95,0-29.129,5.327-34.792,9.061
	c-16.544,7.487-27.674,14.377-38.11,40.643c-9.054,22.062,1.723,46,7.031,58.033c-6.474,27.515,2.503,36.976,2.503,36.976
	c4.698,6.662,16.883,16.312,16.883,43.715c0,31.194-29.647,38.311-29.647,38.311c-18.82,6.826-58.112,19.895-58.112,64.883
	c0,0,0,8.331,8.273,8.331h231.602c8.27,0,8.27-8.331,8.27-8.331C316.305,280.76,277.019,267.691,258.196,260.865z M85.362,317.418
	c3.858-23.465,24.253-32.838,45.102-40.372l0.655-0.227c14.874-3.988,41.341-19.966,41.341-54.265
	c0-29.094-11.704-43.29-17.995-50.922c-1.264-1.547-2.77-3.515-2.423-3.086c-0.52-1.12-2.992-7.646,0.589-22.844
	c1.673-7.12-1.163-11.013-1.163-11.013c-4.515-10.237-12.915-29.285-6.608-44.67c8.456-21.285,15.946-25.484,29.53-31.632
	c0.793-0.359,1.56-0.772,2.286-1.254c2.568-1.69,13.435-6.346,25.729-6.346c6.131,0,11.308,1.18,15.404,3.522
	c4.916,2.801,9.635,8.12,16.758,25.238c13.29,30.52,4.871,47.587,0.632,53.508c-2.802,3.921-3.779,8.877-2.675,13.579
	c3.289,13.985,1.148,19.884,0.605,21.063c-0.144,0.164-2.127,2.71-3.123,3.933c-6.292,7.632-17.998,21.828-17.998,50.922
	c0,34.299,26.469,50.276,41.341,54.265l0.653,0.227c20.853,7.534,41.247,16.907,45.105,40.372H85.362z M339.095,242.509
	c0,0-18.549-4.234-18.549-28.496c0-21.316,6.383-28.819,10.14-34.002c0,0,7.186-7.362,2.011-28.762
	c4.239-9.361,12.865-27.976,5.621-45.133c-8.351-20.423-13.893-25.793-27.133-31.612c-4.523-2.902-15.865-7.054-27.828-7.054
	c-5.65,0-11.403,1.02-16.681,3.438c2.113,5.382,3.891,10.729,5.168,15.993c0.214-0.129,0.425-0.285,0.64-0.405
	c2.82-1.563,6.487-2.36,10.873-2.36c8.555,0,16.9,3.133,18.935,4.44c0.727,0.465,1.495,0.88,2.278,1.219
	c8.142,3.582,11.184,4.918,18.448,22.685c4.379,10.358-1.858,24.125-5.21,31.518c-1.543,3.402-2.069,7.586-1.186,11.221
	c2.262,9.347,1.203,13.717,0.846,14.792c-0.046,0.062-0.096,0.128-0.145,0.202l-0.558,0.758c-4.456,6.078-12.76,17.396-12.76,43.063
	c0,28.675,19.142,41.36,30.257,44.446c10.558,3.804,20.312,9.779,22.794,25.616l-35.776,0.012
	c3.176,4.897,5.784,10.476,7.768,16.661l36.885-0.007c8.273,0,8.273-8.335,8.273-8.335
	C374.206,259.084,354.149,247.808,339.095,242.509z"/>
<path style="fill:#FFFFFF;" d="M1107.399,336.446c-88.748,0-89.437-3.683-100.427-11.979c-5.832-4.394-16.827-7.435-57.011-10.059
	c-2.914-0.191-5.688-1.311-7.548-3.576c-0.852-1.039-20.931-30.377-20.931-77.367c0-46.3,14.371-67.414,14.986-68.392
	c1.784-2.857,4.909-4.596,8.278-4.596c32.99,0,78.725-42.196,109.473-115.855c5.316-12.739,6.417-21.117,25.945-21.117
	c11.109,0,23.562,7.969,29.713,18.195c12.605,20.88,6.207,65.751,0.279,89.729c20.139-0.164,56.594-0.439,73.941-0.439
	c24.135,0,40.1,14.421,40.584,35.496c0.164,6.957-0.752,15.842-2.762,20.434c5.311,5.311,12.167,13.313,12.465,23.624
	c0.367,13.302-8.328,23.437-13.879,29.247c1.27,3.869,3.824,9.004,3.576,15.135c-0.607,15.089-12.236,24.815-19.482,29.889
	c0.6,4.129,1.069,11.914-0.248,17.935C1199.127,326.789,1163.948,336.446,1107.399,336.446z M955.146,294.562
	c34.999,2.899,53.706,6.83,63.574,14.272c7.64,5.761,6.463,8.045,88.679,8.045c25.083,0,74.125-1.051,77.884-18.298
	c1.498-6.896-5.761-13.68-5.791-13.73c-1.982-4.9,0.229-10.653,5.065-12.773c0.076-0.039,19.566-7.041,20.017-17.955
	c0.287-6.982-4.492-11.178-4.606-11.35c-2.843-4.423-1.804-10.493,2.506-13.504c0.05-0.038,12.687-7.709,12.381-18.172
	c-0.241-8.301-11.166-14.149-11.502-14.341c-2.441-1.405-4.214-3.823-4.768-6.593c-0.554-2.766,0.065-5.666,1.784-7.908
	c0,0,4.958-7.911,4.786-15.322c-0.362-15.876-17.404-16.377-21.056-16.377c-24.633,0-87.896,0.256-87.896,0.256
	c-3.412,0.008-6.361-1.604-8.194-4.335c-1.834-2.731-1.972-6.132-0.894-9.237c9.538-27.531,14.867-70.718,6.02-85.471
	c-2.605-4.352-3.205-8.698-12.969-8.698c-1.355,0-4.572,1.069-7.934,9.1c-32.644,78.224-81.384,123.465-121.3,127.549
	c-3.442,7.869-9.921,24.166-9.921,53.745C941.012,263.65,950.559,287.003,955.146,294.562z"/>
</svg>
