<?xml version="1.0" encoding="iso-8859-1"?>
<!DOCTYPE svg PUBLIC "-//W3C//DTD SVG 1.1//EN" "http://www.w3.org/Graphics/SVG/1.1/DTD/svg11.dtd">
<svg version="1.1" id="Layer_1" xmlns="http://www.w3.org/2000/svg" xmlns:xlink="http://www.w3.org/1999/xlink" x="0px" y="0px"
	 width="386.471px" height="386.471px" viewBox="0 0 386.471 386.471" style="enable-background:new 0 0 386.471 386.471;"
	 xml:space="preserve">
<path style="fill:#FFFFFF;" d="M222.694,336.446c-88.748,0-89.437-3.683-100.427-11.979c-5.832-4.394-16.827-7.435-57.011-10.059
	c-2.914-0.191-5.688-1.311-7.548-3.576c-0.852-1.039-20.931-30.377-20.931-77.367c0-46.3,14.371-67.414,14.986-68.392
	c1.784-2.857,4.909-4.596,8.278-4.596c32.99,0,78.725-42.196,109.473-115.855c5.316-12.739,6.417-21.117,25.945-21.117
	c11.109,0,23.562,7.969,29.713,18.195c12.605,20.88,6.207,65.751,0.279,89.729c20.139-0.164,56.594-0.439,73.941-0.439
	c24.135,0,40.1,14.421,40.584,35.496c0.164,6.957-0.752,15.842-2.762,20.434c5.311,5.311,12.167,13.313,12.465,23.624
	c0.367,13.302-8.328,23.437-13.879,29.247c1.27,3.869,3.824,9.004,3.576,15.135c-0.607,15.089-12.236,24.815-19.482,29.889
	c0.6,4.129,1.069,11.914-0.248,17.935C314.422,326.789,279.243,336.446,222.694,336.446z M70.441,294.562
	c34.999,2.899,53.706,6.83,63.574,14.272c7.64,5.761,6.463,8.045,88.679,8.045c25.083,0,74.125-1.051,77.884-18.298
	c1.498-6.896-5.761-13.68-5.791-13.73c-1.982-4.9,0.229-10.653,5.065-12.773c0.076-0.039,19.566-7.041,20.017-17.955
	c0.287-6.982-4.492-11.178-4.606-11.35c-2.843-4.423-1.804-10.493,2.506-13.504c0.05-0.038,12.687-7.709,12.381-18.172
	c-0.241-8.301-11.166-14.149-11.502-14.341c-2.441-1.405-4.214-3.823-4.768-6.593c-0.554-2.766,0.065-5.666,1.784-7.908
	c0,0,4.958-7.911,4.786-15.322c-0.362-15.876-17.404-16.377-21.056-16.377c-24.633,0-87.896,0.256-87.896,0.256
	c-3.412,0.008-6.361-1.604-8.194-4.335c-1.834-2.731-1.972-6.132-0.894-9.237c9.538-27.531,14.867-70.718,6.02-85.471
	c-2.605-4.352-3.205-8.698-12.969-8.698c-1.355,0-4.572,1.069-7.934,9.1c-32.644,78.224-81.384,123.465-121.3,127.549
	c-3.442,7.869-9.921,24.166-9.921,53.745C56.307,263.65,65.854,287.003,70.441,294.562z"/>
</svg>
