<?xml version="1.0" encoding="utf-8"?>
<!-- Generator: Adobe Illustrator 16.0.0, SVG Export Plug-In . SVG Version: 6.00 Build 0)  -->
<!DOCTYPE svg PUBLIC "-//W3C//DTD SVG 1.1//EN" "http://www.w3.org/Graphics/SVG/1.1/DTD/svg11.dtd">
<svg version="1.1" id="Layer_1" xmlns="http://www.w3.org/2000/svg" xmlns:xlink="http://www.w3.org/1999/xlink" x="0px" y="0px"
	 width="386.471px" height="386.471px" viewBox="0 0 386.471 386.471" enable-background="new 0 0 386.471 386.471"
	 xml:space="preserve">
<path fill="#414042" d="M323.018,134.51c0,5.261-4.267,9.527-9.526,9.527H72.98c-5.261,0-9.527-4.267-9.527-9.527l0,0
	c0-5.261,4.266-9.527,9.527-9.527h240.51C318.751,124.983,323.018,129.248,323.018,134.51L323.018,134.51z"/>
<path fill="#414042" d="M323.018,193.402c0,5.262-4.267,9.527-9.526,9.527H72.98c-5.261,0-9.527-4.266-9.527-9.527l0,0
	c0-5.261,4.266-9.526,9.527-9.526h240.51C318.751,183.875,323.018,188.141,323.018,193.402L323.018,193.402z"/>
<path fill="#414042" d="M323.018,251.139c0,5.262-4.267,9.528-9.526,9.528H72.98c-5.261,0-9.527-4.268-9.527-9.528l0,0
	c0-5.261,4.266-9.524,9.527-9.524h240.51C318.751,241.615,323.018,245.878,323.018,251.139L323.018,251.139z"/>
</svg>
