<?xml version="1.0" encoding="utf-8"?>
<!-- Generator: Adobe Illustrator 16.0.0, SVG Export Plug-In . SVG Version: 6.00 Build 0)  -->
<!DOCTYPE svg PUBLIC "-//W3C//DTD SVG 1.1//EN" "http://www.w3.org/Graphics/SVG/1.1/DTD/svg11.dtd">
<svg version="1.1" id="Layer_1" xmlns="http://www.w3.org/2000/svg" xmlns:xlink="http://www.w3.org/1999/xlink" x="0px" y="0px"
	 width="631px" height="120px" viewBox="0 0 631 120" enable-background="new 0 0 631 120" xml:space="preserve">
<path fill="#61C0BD" d="M4.89,79.649c6.868,6.063,15.883,9.749,25.764,9.749c21.513,0,38.954-17.441,38.954-38.955
	c0-9.881-3.685-18.897-9.748-25.764L46.026,38.512c2.563,3.299,4.103,7.431,4.103,11.931c0,10.757-8.719,19.478-19.476,19.478
	c-4.5,0-8.633-1.541-11.931-4.104L4.89,79.649z"/>
<path fill="#585757" d="M328.056,21.236c-6.868-6.063-15.883-9.749-25.764-9.749c-21.513,0-38.954,17.441-38.954,38.955
	c0,9.881,3.685,18.896,9.748,25.764l13.833-13.833c-2.563-3.298-4.103-7.431-4.103-11.931c0-10.757,8.719-19.477,19.476-19.477
	c4.5,0,8.633,1.541,11.931,4.104L328.056,21.236z"/>
<path fill="#61C0BD" d="M254.168,56.011c0-12.905-4.013-22.881-19.52-22.881c-7.7,0-12.581,3.903-15.508,8.674h-0.218l0.11-7.698
	h-17.353V87.57h17.353V61.11c0-7.7,2.059-13.773,9.542-13.773c7.158,0,8.242,5.313,8.242,12.361V87.57h17.352V56.011z
	 M157.649,55.145c0.218-5.099,3.905-10.737,11.062-10.737c7.266,0,10.845,5.856,10.953,10.737H157.649z M195.823,59.266
	c0-15.617-10.954-26.135-26.787-26.135c-15.834,0-28.847,10.086-28.847,27.762c0,17.678,12.037,27.872,28.522,27.872
	c16.592,0,23.642-7.374,25.376-8.677l-6.831-9.002c-3.037,2.062-9.11,5.098-16.05,5.098c-7.05,0-12.907-3.471-13.665-11.17h38.066
	C195.607,65.014,195.823,61.868,195.823,59.266 M119.476,60.676c0,8.242-5.097,13.882-12.58,13.882
	c-7.374,0-12.471-5.64-12.471-13.882c0-8.242,5.097-13.883,12.471-13.883C114.378,46.793,119.476,52.434,119.476,60.676
	 M137.153,60.893c0-15.726-9.76-27.762-25.161-27.762c-8.134,0-13.881,3.144-17.786,7.808H93.99l0.108-6.832H77.614V107.2h17.352
	V80.849c3.361,4.986,9.002,7.916,16.918,7.916C127.394,88.765,137.153,76.617,137.153,60.893"/>
<path fill="#585757" d="M605.106,34.105l-12.038,34.378l-12.146-34.378h-18.11l21.146,51.839l-1.952,4.663
	c-1.408,3.471-3.253,3.471-5.205,3.471c-2.603,0-6.397-1.41-6.397-1.41l-3.471,12.797c0,0,5.748,2.603,14.857,2.603
	s13.448-5.855,17.352-15.399L623,34.105H605.106z M562.053,34.213h-11.819V19.682h-17.461v14.531h-7.592v13.123h7.592V68.05
	c0,8.135,1.084,12.581,3.796,15.725c2.711,3.146,6.832,4.988,13.013,4.988c6.291,0,11.062-1.409,12.363-1.733l-0.867-13.558
	c0,0-2.494,0.977-5.205,0.977c-2.277,0-3.361-0.435-4.122-1.301c-0.867-0.977-1.517-2.061-1.517-6.615V47.336h11.819V34.213z
	 M518.457,34.105h-17.352V87.57h17.352V34.105z M519.651,18.922c0-5.313-4.013-9-9.87-9c-5.855,0-9.868,3.687-9.868,9
	c0,5.423,4.013,9.002,9.868,9.002C515.639,27.924,519.651,24.345,519.651,18.922 M495.034,34.105c0,0-1.844-0.976-5.423-0.976
	c-5.748,0-10.194,2.711-13.231,8.568h-0.218l0.11-7.592H458.92v53.466h17.353V63.82c0-5.964,1.41-9.435,2.711-11.169
	c1.3-1.736,4.121-3.905,8.024-3.905c3.037,0,5.315,0.759,6.29,1.301h0.76L495.034,34.105z M430.941,72.822
	c-1.083,1.844-4.229,4.88-8.893,4.88c-4.772,0-8.134-2.494-8.134-6.615c0-4.013,3.146-6.291,8.458-6.507l8.568-0.543V72.822z
	 M448.187,57.422c0-9.002-2.278-14.207-6.399-18.111c-4.23-3.904-9.978-6.182-19.956-6.182c-9.977,0-18.328,3.145-22.883,5.423
	l4.555,11.278c2.712-1.734,9.544-4.772,16.377-4.772c6.94,0,10.953,2.928,10.953,8.569v1.191l-13.448,0.544
	c-9.868,0.432-20.821,4.444-20.821,16.375c0,11.929,9.977,17.025,19.412,17.025c8.676,0,13.015-4.555,15.292-6.832l0.324,5.641
	h16.595V57.422z M389.298,56.012c0-13.013-4.013-22.883-19.521-22.883c-7.916,0-13.013,3.905-15.724,8.676
	c0,0,0.107-5.857,0.107-11.279V12.741H336.81v74.83h17.351V61.327c0-7.918,2.277-13.991,9.544-13.991s8.134,5.639,8.134,12.147
	v28.088h17.46V56.012z"/>
</svg>
