<?xml version="1.0" encoding="iso-8859-1"?>
<!DOCTYPE svg PUBLIC "-//W3C//DTD SVG 1.1//EN" "http://www.w3.org/Graphics/SVG/1.1/DTD/svg11.dtd">
<svg version="1.1" id="Layer_1" xmlns="http://www.w3.org/2000/svg" xmlns:xlink="http://www.w3.org/1999/xlink" x="0px" y="0px"
	 width="386.471px" height="386.471px" viewBox="0 0 386.471 386.471" style="enable-background:new 0 0 386.471 386.471;"
	 xml:space="preserve">
<g>
	<path style="fill:#5fc0c3;" d="M319.579,110.767c-9.737,4.319-20.285,7.312-31.32,8.618c11.282-6.752,19.882-17.453,24.017-30.201
		c-10.548,6.248-22.232,10.801-34.726,13.225c-9.899-10.547-24.095-17.191-39.758-17.191c-30.098,0-54.531,24.424-54.531,54.524
		c0,4.301,0.506,8.43,1.398,12.425c-45.367-2.292-85.52-23.956-112.458-56.979c-4.715,8.032-7.391,17.445-7.391,27.434
		c0,18.905,9.653,35.629,24.259,45.346c-8.935-0.224-17.283-2.739-24.655-6.815v0.668c0,26.441,18.813,48.512,43.722,53.543
		c-4.554,1.217-9.411,1.866-14.35,1.866c-3.489,0-6.897-0.324-10.305-0.975c6.978,21.663,27.08,37.404,50.954,37.892
		c-18.681,14.604-42.21,23.286-67.76,23.286c-4.38,0-8.681-0.242-12.98-0.729c24.178,15.496,52.818,24.503,83.642,24.503
		c100.293,0,155.143-83.084,155.143-155.135l-0.163-7.059C303.026,131.303,312.276,121.729,319.579,110.767L319.579,110.767z
		 M319.579,110.767"/>
</g>
</svg>
